HIERARCHY
ROOT Hips
{
  OFFSET 5.84602e-005 68.8428 3.50346
  CHANNELS 6 Xposition Yposition Zposition Zrotation Xrotation Yrotation
  JOINT Spine
  {
    OFFSET 0 8.597 -4.6522
    CHANNELS 3 Zrotation Xrotation Yrotation
    JOINT Spine1
    {
      OFFSET 0 7.8454 0.4098
      CHANNELS 3 Zrotation Xrotation Yrotation
      JOINT Spine2
      {
        OFFSET 0 9.7078 -2.1609
        CHANNELS 3 Zrotation Xrotation Yrotation
        JOINT Neck
        {
          OFFSET 0 21.8761 -0.4549
          CHANNELS 3 Zrotation Xrotation Yrotation
          JOINT Head
          {
            OFFSET 0 12.3537 3.3602
            CHANNELS 3 Zrotation Xrotation Yrotation
            End Site
            {
              OFFSET 0.0001 18.9506 0.5657
            }
          }
        }
        JOINT LeftShoulder
        {
          OFFSET 2.2086 21.1115 7.2329
          CHANNELS 3 Zrotation Xrotation Yrotation
          JOINT LeftArm
          {
            OFFSET 13.1193 3.0282 -4.8998
            CHANNELS 3 Zrotation Xrotation Yrotation
            JOINT LeftForeArm
            {
              OFFSET 27.4081 -0.0973053 -0.2375
              CHANNELS 3 Zrotation Xrotation Yrotation
              JOINT LeftHand
              {
                OFFSET 22.8641 0.0662994 -0.1369
                CHANNELS 3 Zrotation Xrotation Yrotation
                JOINT LeftHandIndex1
                {
                  OFFSET 8.8614 0.775009 2.4612
                  CHANNELS 3 Zrotation Xrotation Yrotation
                  JOINT LeftHandIndex2
                  {
                    OFFSET 3.3146 -0.808304 0.5841
                    CHANNELS 3 Zrotation Xrotation Yrotation
                    JOINT LeftHandIndex3
                    {
                      OFFSET 2.2628 -0.552002 0.3989
                      CHANNELS 3 Zrotation Xrotation Yrotation
                      End Site
                      {
                        OFFSET 1.6102 -0.4807 0.2612
                      }
                    }
                  }
                }
                JOINT LeftHandMiddle1
                {
                  OFFSET 8.9937 0.895004 0.2143
                  CHANNELS 3 Zrotation Xrotation Yrotation
                  JOINT LeftHandMiddle2
                  {
                    OFFSET 4.0984 0.0113983 -0.0242
                    CHANNELS 3 Zrotation Xrotation Yrotation
                    JOINT LeftHandMiddle3
                    {
                      OFFSET 2.2716 0.00689697 -0.0138001
                      CHANNELS 3 Zrotation Xrotation Yrotation
                      End Site
                      {
                        OFFSET 2.0404 -0.1441 0.0027
                      }
                    }
                  }
                }
                JOINT LeftHandRing1
                {
                  OFFSET 8.5234 0.597198 -2.0164
                  CHANNELS 3 Zrotation Xrotation Yrotation
                  JOINT LeftHandRing2
                  {
                    OFFSET 3.7188 -0.188293 -0.2328
                    CHANNELS 3 Zrotation Xrotation Yrotation
                    JOINT LeftHandRing3
                    {
                      OFFSET 2.1191 -0.106598 -0.1332
                      CHANNELS 3 Zrotation Xrotation Yrotation
                      End Site
                      {
                        OFFSET 1.8737 -0.2304 -0.0886
                      }
                    }
                  }
                }
                JOINT LeftHandPinky1
                {
                  OFFSET 7.9094 -0.601089 -3.4825
                  CHANNELS 3 Zrotation Xrotation Yrotation
                  JOINT LeftHandPinky2
                  {
                    OFFSET 2.2874 -0.477005 -0.6314
                    CHANNELS 3 Zrotation Xrotation Yrotation
                    JOINT LeftHandPinky3
                    {
                      OFFSET 1.6774 -0.349396 -0.4633
                      CHANNELS 3 Zrotation Xrotation Yrotation
                      End Site
                      {
                        OFFSET 1.4888 -0.4091 -0.3416
                      }
                    }
                  }
                }
                JOINT LeftHandThumb1
                {
                  OFFSET 1.833 -1.3875 1.3896
                  CHANNELS 3 Zrotation Xrotation Yrotation
                  JOINT LeftHandThumb2
                  {
                    OFFSET 3.4129 -1.121 2.5732
                    CHANNELS 3 Zrotation Xrotation Yrotation
                    JOINT LeftHandThumb3
                    {
                      OFFSET 2.2474 -0.804199 1.6192
                      CHANNELS 3 Zrotation Xrotation Yrotation
                      End Site
                      {
                        OFFSET 1.6527 -0.5689 1.1317
                      }
                    }
                  }
                }
              }
            }
          }
        }
        JOINT RightShoulder
        {
          OFFSET -2.2086 21.1115 7.2329
          CHANNELS 3 Zrotation Xrotation Yrotation
          JOINT RightArm
          {
            OFFSET -13.1216 3.0287 -4.9007
            CHANNELS 3 Zrotation Xrotation Yrotation
            JOINT RightForeArm
            {
              OFFSET -27.4081 -0.0973053 -0.2375
              CHANNELS 3 Zrotation Xrotation Yrotation
              JOINT RightHand
              {
                OFFSET -22.8641 0.0664063 -0.1369
                CHANNELS 3 Zrotation Xrotation Yrotation
                JOINT RightHandIndex1
                {
                  OFFSET -8.8614 0.774994 2.4612
                  CHANNELS 3 Zrotation Xrotation Yrotation
                  JOINT RightHandIndex2
                  {
                    OFFSET -3.3146 -0.808304 0.5841
                    CHANNELS 3 Zrotation Xrotation Yrotation
                    JOINT RightHandIndex3
                    {
                      OFFSET -2.2628 -0.552002 0.3989
                      CHANNELS 3 Zrotation Xrotation Yrotation
                      End Site
                      {
                        OFFSET -1.6102 -0.4807 0.2612
                      }
                    }
                  }
                }
                JOINT RightHandMiddle1
                {
                  OFFSET -8.9937 0.894989 0.2143
                  CHANNELS 3 Zrotation Xrotation Yrotation
                  JOINT RightHandMiddle2
                  {
                    OFFSET -4.0984 0.0113983 -0.0242
                    CHANNELS 3 Zrotation Xrotation Yrotation
                    JOINT RightHandMiddle3
                    {
                      OFFSET -2.2716 0.00691223 -0.0138001
                      CHANNELS 3 Zrotation Xrotation Yrotation
                      End Site
                      {
                        OFFSET -2.0404 -0.1441 0.0027
                      }
                    }
                  }
                }
                JOINT RightHandRing1
                {
                  OFFSET -8.5234 0.597198 -2.0164
                  CHANNELS 3 Zrotation Xrotation Yrotation
                  JOINT RightHandRing2
                  {
                    OFFSET -3.7188 -0.188309 -0.2328
                    CHANNELS 3 Zrotation Xrotation Yrotation
                    JOINT RightHandRing3
                    {
                      OFFSET -2.1191 -0.106598 -0.1332
                      CHANNELS 3 Zrotation Xrotation Yrotation
                      End Site
                      {
                        OFFSET -1.8737 -0.2304 -0.0886
                      }
                    }
                  }
                }
                JOINT RightHandPinky1
                {
                  OFFSET -7.9094 -0.601105 -3.4825
                  CHANNELS 3 Zrotation Xrotation Yrotation
                  JOINT RightHandPinky2
                  {
                    OFFSET -2.2874 -0.477005 -0.6314
                    CHANNELS 3 Zrotation Xrotation Yrotation
                    JOINT RightHandPinky3
                    {
                      OFFSET -1.6774 -0.349396 -0.4633
                      CHANNELS 3 Zrotation Xrotation Yrotation
                      End Site
                      {
                        OFFSET -1.4888 -0.4091 -0.3416
                      }
                    }
                  }
                }
                JOINT RightHandThumb1
                {
                  OFFSET -1.833 -1.38751 1.3896
                  CHANNELS 3 Zrotation Xrotation Yrotation
                  JOINT RightHandThumb2
                  {
                    OFFSET -3.41299 -1.12099 2.5732
                    CHANNELS 3 Zrotation Xrotation Yrotation
                    JOINT RightHandThumb3
                    {
                      OFFSET -2.24741 -0.804108 1.6192
                      CHANNELS 3 Zrotation Xrotation Yrotation
                      End Site
                      {
                        OFFSET -1.6527 -0.5689 1.1317
                      }
                    }
                  }
                }
              }
            }
          }
        }
      }
    }
  }
  JOINT RightUpLeg
  {
    OFFSET -9.1966 3.8861 -0.7581
    CHANNELS 3 Zrotation Xrotation Yrotation
    JOINT RightLeg
    {
      OFFSET -0.7359 -41.0265 0
      CHANNELS 3 Zrotation Xrotation Yrotation
      JOINT RightFoot
      {
        OFFSET 0 -40.2855 0
        CHANNELS 3 Zrotation Xrotation Yrotation
        JOINT RightToeBase
        {
          OFFSET 0 -5.6122 11.7359
          CHANNELS 3 Zrotation Xrotation Yrotation
          End Site
          {
            OFFSET 0 0 7.8731
          }
        }
      }
    }
  }
  JOINT LeftUpLeg
  {
    OFFSET 9.1965 3.8864 -0.7581
    CHANNELS 3 Zrotation Xrotation Yrotation
    JOINT LeftLeg
    {
      OFFSET 0.7359 -41.0268 0
      CHANNELS 3 Zrotation Xrotation Yrotation
      JOINT LeftFoot
      {
        OFFSET 0 -40.2855 0
        CHANNELS 3 Zrotation Xrotation Yrotation
        JOINT LeftToeBase
        {
          OFFSET 0 -5.6122 11.7359
          CHANNELS 3 Zrotation Xrotation Yrotation
          End Site
          {
            OFFSET 0 0 7.8731
          }
        }
      }
    }
  }
}
MOTION
Frames:	4
Frame Time:	0.0333333
5.84602e-005 68.8428 3.50346 0 0 -0 0 0 -0 0 0 -0 0 0 -0 0 0 -0 0 0 -0 0 0 -0 0 0 -0 0 0 -0 0 0 -0 0 0 -0 0 0 -0 0 0 -0 0 0 -0 -0.0146107 -8.87603e-005 -2.63497e-007 2.99804e-018 -2.42657e-020 -1.42182e-022 0 0 -0 -0.0187562 -0.001176 5.858e-005 5.06224e-018 3.88251e-019 1.21329e-020 0 0 -0 -0.012269 -0.00324817 0.000675346 -1.74678e-018 3.88251e-019 -0 0 0 -0 0 0 -0 0 0 -0 0 0 -0 0 0 -0 0 0 -0 0 0 -0 0 0 -0 0 0 -0 0 0 -0 0 0 -0 0.0149955 -9.10982e-005 2.64101e-007 -9.69331e-018 1.21329e-020 -4.7394e-023 0 0 -0 0.0189956 -0.00119102 -5.96516e-005 -5.41541e-019 0 2.42657e-020 0 0 -0 0.0122698 -0.00324857 -0.000673756 -2.00796e-019 0 -1.94126e-019 0 0 -0 0 0 -0 0 0 -0 3.39842 1.33031 -0.0637918 -5.65207e-008 0.834868 -0.000436188 -3.39935 -2.16518 -0.0642563 -8.89002e-024 -1.18485e-023 -1.48106e-024 -3.39844 1.35642 0.0640283 -3.18788e-007 0.782166 -0.000588827 3.39931 -2.13858 0.0634662 1.1399e-023 0 -0 
-41.6437 23.015 -6.37188 -66.6667 -2.3753e-008 2.59276 0.0231331 0.775309 -0.191092 0.0491215 1.55054 -0.382555 0.0490846 1.55054 -0.382554 0.000198052 39.4612 -0.000152093 2.75407e-005 -60.949 2.67811e-005 -12.3764 -2.21494 5.33272 -0.132925 1.29101 -54.4127 -8.57945 -9.2897 -26.4774 -22.546 -27.8861 -25.5931 8.04314e-007 -4.36972e-006 -6.483e-007 -3.95198e-006 4.60028e-006 -1.7827e-006 1.65184e-006 -6.57627e-006 4.89195e-007 8.04314e-007 -4.36972e-006 -6.483e-007 -0.0146031 -7.89042e-005 -1.16634e-005 1.6514e-006 -6.57634e-006 4.88355e-007 8.04314e-007 -4.36972e-006 -6.483e-007 -0.0187623 -0.00116556 5.15814e-005 1.65127e-006 -6.57639e-006 4.88103e-007 8.04314e-007 -4.36972e-006 -6.483e-007 -0.0122542 -0.00323051 0.000667788 1.65145e-006 -6.57643e-006 4.88465e-007 8.04314e-007 -4.36972e-006 -6.483e-007 -3.95198e-006 4.60028e-006 -1.7827e-006 1.65184e-006 -6.57627e-006 4.89195e-007 12.3757 -2.19592 -5.31016 0.131613 1.29002 54.4214 8.59047 -9.2824 26.5213 22.4586 -27.9224 25.5146 -6.06767e-007 5.87945e-007 -1.16807e-007 -3.03384e-007 2.93973e-007 -5.84036e-008 -3.03384e-007 2.93973e-007 -5.84036e-008 -6.06767e-007 5.87945e-007 -1.16807e-007 0.0150388 -9.13839e-005 -8.78212e-007 -3.03381e-007 2.93965e-007 -5.84419e-008 -6.06767e-007 5.87945e-007 -1.16807e-007 0.019056 -0.00119334 -6.13577e-005 -3.03381e-007 2.93962e-007 -5.84493e-008 -6.06767e-007 5.87945e-007 -1.16807e-007 0.012383 -0.00327649 -0.000671137 -3.03385e-007 2.93964e-007 -5.84268e-008 -6.06767e-007 5.87945e-007 -1.16807e-007 -3.03384e-007 2.93973e-007 -5.84036e-008 -3.03384e-007 2.93973e-007 -5.84036e-008 -57.6719 -34.0074 -47.4197 60.3425 16.837 -61.8945 -6.34066 31.4101 24.3289 -1.8939e-007 1.005e-006 -6.41816e-007 5.41482 -56.3478 -3.02564 -8.16509 40.2601 23.2815 15.888 26.8886 -24.3901 7.60129e-008 -7.34819e-007 -4.19684e-007 
-58.8025 3.94324 -10.4445 -96.6667 1.47649e-007 3.75951 0.0463462 1.03967 -0.275605 0.0974975 2.07922 -0.552179 0.0975536 2.07922 -0.552175 -0.000112697 56.217 0.000103959 -1.47144e-005 -87.3474 -1.20315e-005 -17.7998 -3.06815 8.33486 0.341139 0.599233 -79.0801 -15.4275 -11.5671 -39.8097 -41.5248 -36.4489 -40.9699 -1.27222e-014 -1.59028e-015 -3.18055e-015 6.62086e-032 1.59028e-015 -2.38542e-015 -3.18055e-015 1.59028e-015 7.95139e-016 -1.27222e-014 -1.59028e-015 -3.18055e-015 -0.0145717 -8.70614e-005 -9.29243e-007 1.27222e-014 0 7.95139e-016 -1.27222e-014 -1.59028e-015 -3.18055e-015 -0.0187698 -0.00117158 5.99073e-005 -0 0 3.18055e-015 -1.27222e-014 -1.59028e-015 -3.18055e-015 -0.0121903 -0.00322288 0.000670726 -1.59028e-014 1.59028e-015 -7.95139e-016 -1.27222e-014 -1.59028e-015 -3.18055e-015 6.62086e-032 1.59028e-015 -2.38542e-015 -3.18055e-015 1.59028e-015 7.95139e-016 17.7835 -3.13491 -8.42715 -0.347228 0.596918 79.0339 15.3727 -11.609 39.6431 41.8234 -36.2783 41.206 0 1.59028e-015 -0 -2.03777e-006 -9.65996e-007 1.11247e-006 1.59028e-014 7.95139e-015 -8.74653e-015 0 1.59028e-015 -0 0.0149919 -9.30862e-005 -6.1216e-007 -9.54166e-015 -3.18055e-015 7.95139e-016 0 1.59028e-015 -0 0.0190427 -0.00119431 -6.25715e-005 3.18055e-015 -9.54166e-015 -2.38542e-015 0 1.59028e-015 -0 0.0122973 -0.00325132 -0.000679463 -2.03644e-006 -9.66231e-007 1.11256e-006 0 1.59028e-015 -0 -2.03777e-006 -9.65996e-007 1.11247e-006 1.59028e-014 7.95139e-015 -8.74653e-015 -101.641 -30.9453 -72.8564 93.8369 5.72624 -82.1797 -15.4828 43.0175 38.2234 3.76363e-008 3.5821e-007 -7.67389e-007 -3.66556 -83.9693 -17.3903 -29.0364 56.1429 46.3123 30.693 34.4398 -39.3613 -5.4882e-007 6.49184e-006 -7.81113e-007 
-55.4747 7.88237 -8.94482 -90 1.98785e-016 3.50023 0.0415139 0.793409 -0.256597 0.0866695 1.58662 -0.513845 0.0866311 1.58662 -0.513846 -0.000233566 50.265 0.000170456 -9.47942e-005 -79.1931 -0.000100016 -16.5861 -2.5963 8.99205 0.241766 0.778028 -74.0329 -14.4457 -10.7108 -39.0349 -35.8961 -36.072 -35.7122 -0 -1.35174e-014 -0 -4.8553e-031 -1.74931e-014 -1.59028e-015 6.36111e-015 -1.43125e-014 -0 -0 -1.35174e-014 -0 -0.0145869 -8.86282e-005 2.14176e-006 3.18055e-015 7.95139e-016 -1.59028e-015 -0 -1.35174e-014 -0 -0.018758 -0.00117398 5.69781e-005 6.36111e-015 0 -0 -0 -1.35174e-014 -0 -0.0122573 -0.00324141 0.000671756 6.36111e-015 -5.56597e-015 -3.18055e-015 -0 -1.35174e-014 -0 -4.8553e-031 -1.74931e-014 -1.59028e-015 6.36111e-015 -1.43125e-014 -0 16.5347 -2.85276 -9.33698 -0.258063 0.765712 73.868 14.2526 -10.8601 38.4031 37.0976 -35.4568 36.6879 -9.54166e-015 0 1.59028e-015 -6.36111e-015 7.95139e-016 -7.95139e-016 0 0 -7.95139e-016 -9.54166e-015 0 1.59028e-015 0.0149879 -8.9093e-005 4.10812e-006 -3.18055e-015 -1.59028e-015 -0 -9.54166e-015 0 1.59028e-015 0.0190249 -0.00119331 -6.33225e-005 -6.36111e-015 0 -7.95139e-016 -9.54166e-015 0 1.59028e-015 0.0122444 -0.00323935 -0.000674366 6.36111e-015 -5.56597e-015 2.38542e-015 -9.54166e-015 0 1.59028e-015 -6.36111e-015 7.95139e-016 -7.95139e-016 0 0 -7.95139e-016 -92.6907 -32.0996 -68.3646 86.5965 9.23255 -77.8045 -12.2662 41.0085 33.6897 -6.75868e-015 -3.18055e-015 3.18055e-015 3.25255 -78.6698 -9.10765 -23.0434 55.142 39.8629 26.3421 32.2745 -35.0874 1.43336e-005 1.33252e-006 3.91772e-006 
